# xmcd
#
# Track frame offsets:
#	150
#	14768
#	32039
#	46763
#	60893
#	77970
#	88674
#	105232
#	121864
#	139082
#	153128
#	168878
#
# Disc length: 2453 seconds
#
# Revision: 2
# Processed by: cddbd v1.5.2PL0 Copyright (c) Steve Scherf et al.
# Submitted via: audiograbber 1.83.01
#
DISCID=8509930c
DTITLE=Various Artist - A song writer's tribute to George Straight Vol 1
DYEAR=2008
DGENRE=Country
TTITLE0=Whitey Shafer - Does Ft. Worth ever cross your mind
TTITLE1=Jeff Stevens - Carrying your love with me
TTITLE2=Steve Bogard - Carried away
TTITLE3=Byron Hill - Fool hearted memory
TTITLE4=Grtechen Peters - Chill of an early fall
TTITLE5=Darrel Staedtler - Blame it on Mexico
TTITLE6=Mack Vickery - The fireman
TTITLE7=Tony Lane - Run
TTITLE8=Eric Kaz - I cross my heart
TTITLE9=Dana Hunt Black - Check yes or no
TTITLE10=Sonny Throckmorton - The cowboy rides away
TTITLE11=Whitey Shafer - All my ex's live in Texas
EXTD=
EXTT0=
EXTT1=
EXTT2=
EXTT3=
EXTT4=
EXTT5=
EXTT6=
EXTT7=
EXTT8=
EXTT9=
EXTT10=
EXTT11=
PLAYORDER=
